# xmcd
#
# Track frame offsets:
#	150
#	10139
#	21208
#	29820
#	37760
#	48958
#	58139
#	70043
#	80388
#	92826
#	101174
#	114067
#	126008
#	136056
#	147576
#	157963
#	168823
#	179043
#	189200
#	200512
#	212585
#	225039
#
# Disc length: 3159 seconds
# Revision: 0
# Processed by: cddbd v1.5.2PL0 Copyright (c) Steve Scherf et al.
# Submitted via: dBpowerAMP V12.0
#
DISCID=1b0c5516
DTITLE=Johny Cash - The Very Best of Johny Cas
DYEAR=2012
DGENRE=Blues
TTITLE0=The Rock Island Line
TTITLE1=I Heard That Lonesome Whistle
TTITLE2=Country Boy
TTITLE3=If The Good Lord's Willing
TTITLE4=Cry!Cry!Cry!
TTITLE5=Remember Me
TTITLE6=So Doggone Lonsome
TTITLE7=I Was There When It Happened
TTITLE8=I Walk The Line
TTITLE9=The Wreck Of The Old '97
TTITLE10=Folsom Prison Blues
TTITLE11=Doin' My Time
TTITLE12=Ballad Of A Teenage Queen
TTITLE13=Big River
TTITLE14=There You Go
TTITLE15=Train Of Love
TTITLE16=Get Rhytm
TTITLE17=Hey Porter!
TTITLE18=Don't Make Me Go
TTITLE19=Home Of The Blues
TTITLE20=Next In Line
TTITLE21=Give My Love To Rose
EXTD=
EXTT0=
EXTT1=
EXTT2=
EXTT3=
EXTT4=
EXTT5=
EXTT6=
EXTT7=
EXTT8=
EXTT9=
EXTT10=
EXTT11=
EXTT12=
EXTT13=
EXTT14=
EXTT15=
EXTT16=
EXTT17=
EXTT18=
EXTT19=
EXTT20=
EXTT21=
PLAYORDER=
